# xmcd
#
# Track frame offsets:
#	332
#	25817
#	36285
#	46495
#	60630
#	72282
#	84025
#	93990
#	104867
#	116192
#	126470
#	140157
#
# Disc length: 2033 seconds
#
# Revision: 0
# Processed by: cddbd v1.5.1PL0 Copyright (c) Steve Scherf et al.
# Submitted via: audiograbber 1.83.01
#
DISCID=b307ed0c
DTITLE=Spyder Turner - Spyder Turner - Golden Classics
DYEAR=1996
DGENRE=Soul
TTITLE0=Stand By Me
TTITLE1=Hold On, I'm Coming
TTITLE2=I Can't Make It Anymore
TTITLE3=Moon River
TTITLE4=I'm Alive With a Lovin Feeling
TTITLE5=I Can't Wait To See My Baby's Face
TTITLE6=Dream Lover
TTITLE7=Morning, Morning
TTITLE8=Don't Hold Back
TTITLE9=I Don't Want To Cry
TTITLE10=For Your Precious Love
TTITLE11=You're Good Enough For Me
EXTD=
EXTT0=
EXTT1=
EXTT2=
EXTT3=
EXTT4=
EXTT5=
EXTT6=
EXTT7=
EXTT8=
EXTT9=
EXTT10=
EXTT11=
PLAYORDER=
